<svg xmlns="http://www.w3.org/2000/svg" xml:space="preserve" width="300" height="243.686" viewBox="0 0 300 243.686"><defs><clipPath id="a" clipPathUnits="userSpaceOnUse"><path d="M0 406.144h500V0H0Z"/></clipPath></defs><g clip-path="url(#a)" transform="matrix(.6 0 0 -.6 0 243.686)"><path d="M0 0c-.173-11.491 4.772-22.767 11.064-22.859 4.92-.07 4.743.35 7.104-3.881 3.068-5.496 15.337-4.496 25.372 1.103 10.035 5.603 14.043 13.683 10.975 19.179-1.979 3.549-6.426 5.143-12.028 4.33a34.968 34.968 0 0 1 4.181 5.624c5.889 9.869 4.701 19.243-1.477 22.929-6.172 3.683-14.991.286-20.88-9.582a35.362 35.362 0 0 1-3.092-6.702c-1.934 5.366-5.461 8.568-9.54 8.628C5.38 18.854.166 11.495 0 0" style="fill:#fffde5;fill-opacity:1;fill-rule:nonzero;stroke:none" transform="translate(2.012 168.2)"/><path d="M0 0c-5.479 0-9.498-7.062-9.639-16.79-.081-5.295.983-10.699 2.916-14.821 1.774-3.782 4.023-5.966 6.168-5.998l1.198-.01c4.45-.025 5.164-.485 7.632-4.9.929-1.664 3.485-2.619 7.016-2.619 4.736 0 10.579 1.679 15.623 4.496 4.429 2.471 7.847 5.613 9.622 8.844 1.544 2.81 1.749 5.507.579 7.603-1.544 2.764-5.27 4.005-9.989 3.323a1.996 1.996 0 0 0-2.06 1.046 2.014 2.014 0 0 0 .289 2.294 32.846 32.846 0 0 1 3.942 5.299c5.026 8.419 4.697 16.906-.782 20.175-1.293.775-2.735 1.163-4.291 1.163-4.906 0-10.081-3.757-13.838-10.052a33.23 33.23 0 0 1-2.916-6.32 2.004 2.004 0 0 0-1.884-1.361h-.021c-.845 0-1.601.53-1.888 1.325C6.055-2.778 3.181-.049 0 0Zm15.295-49.153c-5.105 0-8.841 1.661-10.523 4.676-.7 1.255-1.365 2.443-1.711 2.669-.247.163-1.262.166-2.439.173l-1.233.011c-3.797.056-7.261 3.008-9.746 8.31-2.184 4.655-3.386 10.703-3.297 16.584C-13.478-4.514-7.893 4.015-.078 4.015H.06c3.676-.056 6.981-2.145 9.346-5.761.473.975.986 1.933 1.541 2.859 4.485 7.519 10.947 12.008 17.281 12.008 2.287 0 4.422-.584 6.348-1.732 7.476-4.465 8.391-15.267 2.174-25.683a37.341 37.341 0 0 0-1.594-2.446c4.298-.375 7.702-2.333 9.469-5.5 1.87-3.347 1.669-7.43-.565-11.495-2.164-3.938-6.034-7.539-11.184-10.417-5.62-3.131-12.191-5.001-17.581-5.001z" style="fill:#000;fill-opacity:1;fill-rule:nonzero;stroke:none" transform="translate(13.659 184.962)"/><path d="M0 0c-12.841-15.135-26.199-53.812-53.829-69.707-23.884-13.739-54.788-3.312-59.404 21.819-4.047 22.007 4.885 31.632-1.453 37.044-8.819 7.532-34.583-16.154-27.333-54.71 7.97-42.391 54.32-65.098 105.439-49.825 46.781 13.98 66.915 53.006 74.129 73.119" style="fill:#d3edfb;fill-opacity:1;fill-rule:nonzero;stroke:none" transform="translate(147.711 179.218)"/><path d="M0 0c-16.528 0-32.066 4.001-44.954 11.855-16.464 10.032-27.454 25.786-30.946 44.35-5.652 30.048 8.222 50.5 18.292 56.332 4.786 2.771 9.279 2.873 12.318.275 3.987-3.403 3.242-8.044 2.298-13.923-.912-5.687-2.163-13.481-.177-24.283 1.856-10.095 8.268-18.15 18.059-22.682 11.784-5.454 26.485-4.598 38.372 2.241 18.267 10.509 30.356 31.618 40.069 48.577 4.818 8.413 8.978 15.676 13.23 20.689a2.009 2.009 0 0 0 3.061-2.602c-4.012-4.729-8.087-11.845-12.806-20.084-9.953-17.38-22.342-39.012-41.55-50.065-12.997-7.476-29.115-8.398-42.062-2.403-10.845 5.019-18.253 14.35-20.321 25.601-2.11 11.481-.799 19.667.159 25.644.922 5.751 1.237 8.374-.94 10.233-1.669 1.424-4.472 1.17-7.699-.696-9.119-5.281-21.628-24.103-16.358-52.115 3.28-17.433 13.608-32.23 29.09-41.664C-22.809 3.058 4.09.65 30.935 8.671c47.542 14.205 66.76 54.995 72.815 71.87a2.005 2.005 0 0 0 2.566 1.212 2.009 2.009 0 0 0 1.212-2.569C101.265 61.733 81.382 19.55 32.084 4.821 21.275 1.594 10.438 0 0 0Z" style="fill:#000;fill-opacity:1;fill-rule:nonzero;stroke:none" transform="translate(79.62 57.085)"/><path d="M0 0c19.07 11.159 32.165 3.743 40.157 5.988 11.739 3.298-15.648 4.969-9.738 27.595 11.212 42.953 108.44 3.718 108.232-34.106-.262-46.898-44.678-76.982-99.84-77.282-41.391-.226-58.867 17.627-62.967 36.117" style="fill:#d3edfb;fill-opacity:1;fill-rule:nonzero;stroke:none" transform="translate(179.986 135.024)"/><path d="M0 0c-50.344-.004-61.627 26.326-64.147 37.694a2.009 2.009 0 1 0 3.923.869C-57.901 28.09-47.294 3.754.771 4.019c56.448.307 97.599 31.967 97.843 75.285.123 22.247-37.203 46.223-67.845 50.242-11.586 1.523-31.73 1.378-36.435-16.652-3.213-12.308 4.125-17.472 8.978-20.887 2.375-1.672 4.093-2.88 3.747-4.902-.333-1.944-2.439-2.69-4.387-3.234-2.951-.828-6.284-.52-10.151-.163-7.667.707-17.211 1.591-29.536-5.624a2.01 2.01 0 0 0-2.746.718 2.009 2.009 0 0 0 .717 2.746c13.439 7.865 24.128 6.875 31.936 6.158 3.467-.322 6.461-.598 8.695.032.209.06.396.113.562.166-.368.272-.778.558-1.149.82-4.697 3.305-14.471 10.18-10.554 25.184 4.008 15.348 18.893 22.502 40.843 19.621 32.423-4.252 71.474-29.398 71.337-54.246-.131-23.177-10.551-43.134-30.144-57.714C54.003 7.815 28.539.156.785.004.527 0 .258 0 0 0Z" style="fill:#000;fill-opacity:1;fill-rule:nonzero;stroke:none" transform="translate(218.02 55.208)"/><path d="M0 0c-3.093 1.644-6.875 2.577-10.961 2.577-10.445 0-18.914-6.101-18.914-14.591 0-8.494 12.004-10.933 22.449-10.933 0 0 24.318-2.28 33.081 13.347 8.762 15.634 3.98 45.484 3.98 45.484l-41.42 20.229s3.242-37.651-2.021-53.54" style="fill:#d3edfb;fill-opacity:1;fill-rule:nonzero;stroke:none" transform="translate(157.085 25.082)"/><path d="M0 0c-9.639 0-16.906-5.408-16.906-12.583 0-8.282 15.644-8.925 20.441-8.925.063 0 .127-.004.187-.008.233-.021 23.134-1.958 31.144 12.333 7.44 13.269 4.613 37.867 3.895 43.165L1.442 52.211C2.071 42.992 3.326 18.112-.18 4.019c4.429.049 8.575-.947 12.085-2.814a2.006 2.006 0 0 0 .83-2.714 2.004 2.004 0 0 0-2.714-.831C7.137-.809 3.673 0 0 0Zm6.956-25.651c-1.848 0-3.114.095-3.51.127-15.485.018-24.368 4.733-24.368 12.941 0 8.25 6.836 14.732 16.493 16.256C.187 19.55-2.792 55.01-2.824 55.374a2.002 2.002 0 0 0 .866 1.828c.597.41 1.368.466 2.015.148l41.419-20.229a2.015 2.015 0 0 0 1.103-1.484c.201-1.248 4.793-30.724-4.21-46.785-7.282-12.99-24.011-14.503-31.413-14.503z" style="fill:#000;fill-opacity:1;fill-rule:nonzero;stroke:none" transform="translate(146.124 25.651)"/><path d="M0 0c3.093 1.644 6.875 2.577 10.961 2.577 10.445 0 18.914-6.101 18.914-14.591 0-8.494-12.004-10.933-22.449-10.933 0 0-24.318-2.28-33.081 13.347-8.762 15.634-3.98 45.484-3.98 45.484l41.42 20.229s-3.242-37.651 2.021-53.54" style="fill:#d3edfb;fill-opacity:1;fill-rule:nonzero;stroke:none" transform="translate(240.2 25.082)"/><path d="M0 0c-.718-5.298-3.535-29.907 3.895-43.165 8.031-14.323 30.914-12.354 31.144-12.333.064.007.124.007.188.007 4.796 0 20.44.644 20.44 8.925 0 7.172-7.27 12.584-16.906 12.584-3.672 0-7.136-.81-10.021-2.344a2.004 2.004 0 0 0-2.714.831 2.006 2.006 0 0 0 .83 2.714c3.51 1.867 7.738 2.864 12.085 2.814-3.506 14.093-2.251 38.973-1.622 48.192zm31.805-59.63C24.4-59.63 7.674-58.117.392-45.127-8.607-29.069-4.015.41-3.817 1.658a2.006 2.006 0 0 0 1.102 1.484l41.42 20.229a2.008 2.008 0 0 0 2.018-.148 2 2 0 0 0 .862-1.828c-.031-.364-3.011-35.82 1.605-51.701 9.657-1.527 16.493-8.006 16.493-16.256 0-8.208-8.879-12.923-24.368-12.941a42.497 42.497 0 0 0-3.51-.127z" style="fill:#000;fill-opacity:1;fill-rule:nonzero;stroke:none" transform="translate(212.4 59.63)"/><path d="M0 0c62.058 0 67.007 44.381 61.853 69.046-5.15 24.665-14.248 44.046-14.248 58.64h-95.206c0-14.594-9.102-33.971-14.252-58.64C-67.007 44.381-62.058 0 0 0" style="fill:#d3edfb;fill-opacity:1;fill-rule:nonzero;stroke:none" transform="translate(198.642 53.522)"/><path d="M0 0c-9.452 0-18.048 1.029-25.559 3.061a2.009 2.009 0 1 0 1.05 3.878C-17.341 5.002-9.095 4.015 0 4.015c9.091 0 17.341.983 24.52 2.924a2.01 2.01 0 0 0 1.05-3.878C18.044 1.029 9.445 0 0 0" style="fill:#000;fill-opacity:1;fill-rule:nonzero;stroke:none" transform="translate(198.642 51.514)"/><path d="M0 0a2 2 0 0 0-1.446.615c-18.193 18.882-14.23 46.064-12.583 53.943 2.184 10.466 5.1 20.066 7.67 28.535C-2.852 94.648.177 104.63.177 112.784c0 1.11.898 2.008 2.007 2.008h95.203c1.11 0 2.008-.898 2.008-2.008 0-8.154 3.029-18.136 6.535-29.695 2.57-8.469 5.486-18.069 7.671-28.535 1.647-7.882 5.606-35.06-12.591-53.943a2.01 2.01 0 0 0-2.838-.053 2.01 2.01 0 0 0-.053 2.839c16.828 17.461 13.096 42.942 11.548 50.333-2.149 10.29-5.034 19.802-7.582 28.189-3.33 10.969-6.239 20.555-6.66 28.854H4.143c-.421-8.299-3.33-17.882-6.66-28.85-2.548-8.391-5.432-17.9-7.582-28.193-1.544-7.394-5.28-32.872 11.545-50.337A2.007 2.007 0 0 0 1.393.555 2.025 2.025 0 0 0 0 0" style="fill:#000;fill-opacity:1;fill-rule:nonzero;stroke:none" transform="translate(148.856 68.42)"/><path d="M0 0c0-24.852-15.316-35.718-34.216-35.718-18.896 0-34.215 10.869-34.215 35.718 0 15.401 2.944 33.583 2.944 33.583s11.141-4.623 31.271-5.723c19.745-1.078 30.72-.07 30.72-.07S0 15.404 0 0Z" style="fill:#fffde5;fill-opacity:1;fill-rule:nonzero;stroke:none" transform="translate(232.858 92.234)"/><path d="M0 0c-.781-5.419-2.559-19.055-2.559-30.868 0-21.109 12.039-33.71 32.208-33.71 20.169 0 32.208 12.601 32.208 33.71 0 11.798-2.118 21.897-3.022 25.665-2.093-.127-6.077-.311-11.831-.311-5.5 0-11.375.17-17.465.502C14.421-4.189 4.334-1.424 0 0m29.649-68.594c-22.682 0-36.223 14.104-36.223 37.729 0 15.383 2.94 33.721 2.969 33.905a2.01 2.01 0 0 0 2.75 1.534C-.746 4.528 10.272.064 29.755-1c6.016-.329 11.82-.495 17.245-.495 8.491 0 13.135.413 13.181.42a1.998 1.998 0 0 0 2.114-1.452c.145-.516 3.573-12.831 3.573-28.338.004-23.625-13.537-37.729-36.219-37.729z" style="fill:#000;fill-opacity:1;fill-rule:nonzero;stroke:none" transform="translate(168.993 123.102)"/><path d="M0 0s9.833-2.898 33.844-3.655c20.738-.654 33.848 1.874 33.848 1.874" style="fill:#fffde5;fill-opacity:1;fill-rule:nonzero;stroke:none" transform="translate(164.798 102.612)"/><path d="M0 0c-2.206 0-4.524.035-6.949.11-23.993.756-33.936 3.616-34.35 3.736a2.007 2.007 0 0 0 1.135 3.853c.137-.039 10.024-2.842 33.342-3.574 20.233-.64 33.275 1.813 33.406 1.842a2.013 2.013 0 0 0 2.351-1.591 2.008 2.008 0 0 0-1.591-2.351C26.86 1.926 16.648 0 0 0Z" style="fill:#000;fill-opacity:1;fill-rule:nonzero;stroke:none" transform="translate(205.528 96.84)"/><path d="M0 0s12.368-2.937 32.409-2.937C52.454-2.937 64.815 0 64.815 0" style="fill:#fffde5;fill-opacity:1;fill-rule:nonzero;stroke:none" transform="translate(166.233 78.756)"/><path d="M0 0c-20.045 0-32.356 2.867-32.872 2.99a2.006 2.006 0 0 0-1.488 2.418A2.013 2.013 0 0 0-31.943 6.9c.124-.029 12.41-2.881 31.943-2.881 19.536 0 31.819 2.852 31.943 2.881a2.014 2.014 0 0 0 2.418-1.492 2.011 2.011 0 0 0-1.489-2.418C32.353 2.867 20.049 0 0 0" style="fill:#000;fill-opacity:1;fill-rule:nonzero;stroke:none" transform="translate(198.642 73.815)"/><path d="M0 0c4.825 6.631 7.614 14.414 8.094 19.681.622 6.822-1.76 11.322-5.892 12.771-4.492 1.576-9.399-1.902-17.139-6.72-8.265-5.146-18.395-6.21-25.924-3.556l.007-.007c-.802.28-1.626.541-2.485.767-12.173 3.249-24.937-1.392-32.384-9.324-6.681-7.115-8.363-17.723-6.946-28.048 2.241-16.372 13.973-28.231 27.91-29.995 7.462-.94 13.764.449 18.808 3.348l-.407-.467C-13.591-41.744 2.584-21.254.032.039z" style="fill:#fff;fill-opacity:1;fill-rule:nonzero;stroke:none" transform="translate(327.06 153.931)"/><path d="M0 0c-1.569 0-3.174.102-4.811.308-15.16 1.915-27.354 14.958-29.648 31.713-1.679 12.229.975 22.777 7.472 29.694 8.561 9.116 22.371 13.093 34.364 9.89 17.518-4.673 24.071-19.72 24.34-20.359a2.014 2.014 0 0 0-1.064-2.634 2.008 2.008 0 0 0-2.63 1.064c-.074.17-6.129 13.902-21.678 18.048-12.255 3.266-24.096-2.046-30.402-8.759-5.652-6.019-7.932-15.393-6.422-26.4 2.05-14.959 12.813-26.588 26.174-28.274 11.703-1.474 21.491 3.1 26.853 12.545 3.329 5.864 4.259 13.283 2.488 19.843-2.206 8.158-9.01 14.966-14.241 14.266-2.715-.357-4.086-2.209-4.758-3.701-1.58-3.513-.883-8.472 1.732-12.343 1.729-2.552 3.701-4.079 5.553-4.298 1.089-.127 1.912.219 2.287.559.643.586 1.075 1.763 1.099 3.001.014.844-.159 2.456-1.488 3.757a2.008 2.008 0 0 0 2.807 2.87c1.785-1.746 2.739-4.125 2.693-6.702-.042-2.357-.944-4.563-2.41-5.895-1.354-1.234-3.394-1.824-5.465-1.58-2.142.254-5.337 1.509-8.406 6.037C1.018 37.704.208 44.081 2.372 48.888c1.541 3.425 4.344 5.571 7.893 6.037 8.073 1.046 16.164-8.034 18.645-17.203 2.04-7.561.965-16.111-2.87-22.873C20.593 5.26 11.265 0 0 0Z" style="fill:#000;fill-opacity:1;fill-rule:nonzero;stroke:none" transform="translate(276.86 107.2)"/><path d="M0 0a2.01 2.01 0 0 0-.993 3.754C9.805 9.901 15.86 23.99 16.553 31.579c.512 5.599-1.149 9.497-4.56 10.692-3.202 1.128-7.306-1.449-13.513-5.341l-1.902-1.187c-8.401-5.232-19.256-6.702-27.651-3.744a2.008 2.008 0 1 0 1.336 3.786c7.285-2.57 16.786-1.248 24.195 3.365l1.891 1.181c6.938 4.347 11.947 7.49 16.977 5.726 5.206-1.828 7.907-7.377 7.228-14.849C19.762 22.526 13.17 7.186.997.258A2.087 2.087 0 0 0 0 0Z" style="fill:#000;fill-opacity:1;fill-rule:nonzero;stroke:none" transform="translate(316.605 142.214)"/><path d="M0 0h-.339a2.008 2.008 0 0 0 .017 4.015c.117-.003.216 0 .318 0 9.738 0 18.678 4.005 25.206 11.301 6.857 7.663 10.088 17.882 8.872 28.044a2.009 2.009 0 0 0 3.987.48c1.358-11.303-2.237-22.678-9.865-31.2C20.893 4.482 10.89 0 0 0Z" style="fill:#000;fill-opacity:1;fill-rule:nonzero;stroke:none" transform="translate(291.028 110.37)"/><path d="M0 0s17.687-15.256 28.687-38.729c11.007-23.467 5.928-46.029-9.639-49.486C3.471-91.672-.555-72.637-1.516-57.399-3.004-33.77 0 0 0 0" style="fill:#d3edfb;fill-opacity:1;fill-rule:nonzero;stroke:none" transform="translate(262.224 147.647)"/><path d="M0 0c-.732-9.734-2.336-34.58-1.181-52.942.845-13.386 4.132-29.345 15.012-29.345.979 0 2.026.124 3.114.364 4.821 1.071 8.66 4.263 11.099 9.226 4.645 9.451 3.556 23.802-2.845 37.446C17.196-18.165 5.447-5.387 0 0m13.831-86.302c-11.237 0-17.638 11.141-19.02 33.109C-6.67-29.681-3.697 4.171-3.669 4.51c.067.75.548 1.4 1.244 1.683.7.279 1.495.152 2.064-.34.736-.636 18.14-15.807 29.193-39.397 7.01-14.945 8.063-30.243 2.81-40.924-2.997-6.098-7.779-10.032-13.834-11.375a18.375 18.375 0 0 0-3.977-.459z" style="fill:#000;fill-opacity:1;fill-rule:nonzero;stroke:none" transform="translate(263.892 143.313)"/><path d="M0 0s2.45-4.722 2.223-9.639c-.265-5.754-5.27-8.66-9.031-7.875-3.761.784-6.196 5.595-5.164 11.159" style="fill:#d3edfb;fill-opacity:1;fill-rule:nonzero;stroke:none" transform="translate(277.024 88.073)"/><path d="M0 0c-.562 0-1.117.057-1.658.17-4.984 1.039-7.939 6.966-6.726 13.491a1.998 1.998 0 0 0 2.34 1.609 2.011 2.011 0 0 0 1.608-2.34C-5.327 8.126-3.263 4.606-.838 4.1c1.343-.279 2.959.152 4.221 1.131 1.452 1.128 2.304 2.856 2.4 4.871.194 4.295-1.983 8.582-2.004 8.625a2.008 2.008 0 0 0 3.566 1.845c.11-.212 2.693-5.263 2.446-10.654-.145-3.206-1.548-5.998-3.948-7.861C4.118.725 2.025 0 0 0Z" style="fill:#000;fill-opacity:1;fill-rule:nonzero;stroke:none" transform="translate(271.467 68.424)"/><path d="M0 0c-8.448-5.373-17.574-6.309-20.395-2.089-2.821 4.217 1.739 11.993 10.187 17.366 8.441 5.373 21.272 8.656 24.092 4.443C16.705 15.496 8.448 5.369 0 0" style="fill:#d3edfb;fill-opacity:1;fill-rule:nonzero;stroke:none" transform="translate(304.523 297.527)"/><path d="M0 0c-4.789 0-12.258-2.541-17.765-6.048-5.277-3.354-9.187-7.903-9.964-11.59-.258-1.219-.135-2.216.367-2.966 1.018-1.523 3.404-1.749 4.737-1.749 3.736 0 8.561 1.65 12.912 4.418C-3.202-13.796 2.817-7.002 3.704-2.796c.117.548.188 1.297-.127 1.767C3.149-.385 1.81 0 0 0Zm-22.625-26.369c-3.687 0-6.554 1.255-8.077 3.535-1.106 1.654-1.439 3.74-.958 6.023 1.004 4.765 5.5 10.187 11.739 14.149C-13.746 1.269-5.553 4.012 0 4.012c3.344 0 5.67-.947 6.917-2.81.873-1.312 1.117-2.934.718-4.829-1.273-6.03-8.777-13.619-15.196-17.698-5.04-3.202-10.529-5.044-15.064-5.044" style="fill:#000;fill-opacity:1;fill-rule:nonzero;stroke:none" transform="translate(313.162 317.155)"/><path d="M0 0c6.755-7.384 9.264-16.214 5.599-19.723-3.669-3.51-12.113-.368-18.872 7.016-6.754 7.384-12.215 19.448-8.557 22.958C-18.161 13.76-6.758 7.384 0 0" style="fill:#d3edfb;fill-opacity:1;fill-rule:nonzero;stroke:none" transform="translate(145.499 330.322)"/><path d="M0 0c-.495 0-1.163-.074-1.541-.435C-3.722-2.524.23-13.068 7.108-20.586c4.337-4.74 9.583-7.801 13.368-7.801 1.139 0 2.026.297 2.637.88 2.467 2.361.735 9.89-5.694 16.917C12.166-4.85 4.189 0 0 0Zm20.476-32.402c-4.931 0-11.187 3.488-16.33 9.105C-2.75-15.761-9.307-2.315-4.319 2.464c1.074 1.028 2.527 1.551 4.315 1.551 5.946 0 15.033-6.047 20.381-11.894 7.603-8.31 10.021-18.207 5.507-22.526-1.357-1.308-3.23-1.997-5.408-1.997z" style="fill:#000;fill-opacity:1;fill-rule:nonzero;stroke:none" transform="translate(126.599 339.554)"/><path d="M0 0c-5.291 1.654-10.922-1.308-12.569-6.599-1.259-4.051-3.15-6.645-5.779-7.95-1.206-.597-2.545-.922-3.903-1.074 1.789 7.85 2.959 16.415 3.037 25.509.049 5.462-4.274 9.943-9.703 10.12-.081.004-.163.004-.248.004a10.042 10.042 0 0 1-10.126-9.954c-.301-34.64-20.152-61.121-20.385-61.422-3.365-4.393-2.541-10.682 1.845-14.061a10.031 10.031 0 0 1 5.79-2.078 10.032 10.032 0 0 1 8.289 3.909c.569.739 8.533 11.262 15.238 28.016a43.886 43.886 0 0 1 3.018-.212c4.822-.156 10.424.516 15.839 3.146 5.377 2.608 12.555 8.207 16.249 20.08C8.246-7.274 5.291-1.647 0 0" style="fill:#fffde5;fill-opacity:1;fill-rule:nonzero;stroke:none" transform="translate(318.729 369.33)"/><path d="M0 0c-4.411 0-8.017-3.574-8.055-7.964-.308-35.512-20.593-62.358-20.798-62.627-2.687-3.506-2.022-8.55 1.477-11.247a7.992 7.992 0 0 1 4.634-1.661l.262-.004a7.978 7.978 0 0 1 6.369 3.132c.336.435 8.285 10.848 14.966 27.535a2.002 2.002 0 0 0 2.068 1.251 40.692 40.692 0 0 1 4.121-.223c5.009 0 9.604.997 13.654 2.966 5.02 2.435 11.732 7.688 15.21 18.872a7.984 7.984 0 0 1-.558 6.118 7.993 7.993 0 0 1-4.723 3.934 8.042 8.042 0 0 1-2.396.368 7.99 7.99 0 0 1-7.66-5.645c-1.428-4.595-3.651-7.589-6.801-9.151-1.318-.654-2.856-1.078-4.57-1.273a2.01 2.01 0 0 0-2.181 2.439c1.912 8.395 2.916 16.832 2.987 25.079C8.045-3.779 4.563-.145.244-.004zm-22.48-87.522-.393.007a12.022 12.022 0 0 0-6.949 2.492c-5.252 4.044-6.246 11.615-2.216 16.875.194.258 19.674 26.287 19.971 60.22.06 6.585 5.461 11.943 12.046 11.943h.152l.247-.007c6.483-.212 11.707-5.659 11.647-12.145-.064-7.5-.873-15.153-2.411-22.788.131.057.255.113.379.173 2.11 1.047 3.665 3.256 4.75 6.745a11.99 11.99 0 0 0 11.498 8.469c1.216 0 2.422-.184 3.592-.552a11.965 11.965 0 0 0 7.083-5.899 11.98 11.98 0 0 0 .838-9.18c-3.906-12.555-11.562-18.507-17.292-21.289-4.605-2.234-9.791-3.369-15.411-3.369-.463 0-.919.008-1.371.022-.538.017-1.086.046-1.651.088-6.765-16.394-14.609-26.669-14.952-27.111a12 12 0 0 0-9.557-4.694z" style="fill:#000;fill-opacity:1;fill-rule:nonzero;stroke:none" transform="translate(289.5 387.332)"/><path d="M0 0c5.535.35 10.296-3.863 10.643-9.392.261-4.231 1.481-7.203 3.725-9.094 1.029-.866 2.252-1.503 3.535-1.969.127 8.048 1.022 16.648 3.107 25.499 1.251 5.316 6.514 8.642 11.834 7.525.078-.014.159-.035.237-.056 5.397-1.269 8.741-6.674 7.476-12.075-7.932-33.72 5.065-64.154 5.217-64.504 2.223-5.065-.067-10.978-5.132-13.219a10.002 10.002 0 0 0-6.119-.647 10.021 10.021 0 0 0-7.122 5.768c-.378.856-5.617 12.969-8.151 30.837-.962.127-1.958.293-2.987.509-4.722.989-10.003 2.976-14.637 6.811C-2.976-30.193-8.621-23.05-9.395-10.639-9.734-5.108-5.532-.343 0 0" style="fill:#fffde5;fill-opacity:1;fill-rule:nonzero;stroke:none" transform="translate(135.768 391.362)"/><path d="M0 0c-.17 0-.343-.004-.516-.018a7.982 7.982 0 0 1-5.521-2.697 7.98 7.98 0 0 1-1.997-5.811c.724-11.685 6.002-18.383 10.296-21.946 3.761-3.114 8.395-5.267 13.768-6.395a37.32 37.32 0 0 1 2.838-.484 2.01 2.01 0 0 0 1.725-1.707c2.531-17.832 7.776-29.804 7.999-30.306a8.07 8.07 0 0 1 5.701-4.617 8.04 8.04 0 0 1 4.892.52c4.04 1.785 5.882 6.529 4.108 10.576-.135.307-13.467 31.197-5.334 65.769 1.014 4.313-1.669 8.646-5.981 9.661-.007 0-.184.042-.191.045a8.002 8.002 0 0 1-9.466-6.023c-1.887-8.02-2.916-16.453-3.05-25.067a2.012 2.012 0 0 0-2.697-1.856c-1.615.59-3.008 1.368-4.139 2.319-2.69 2.265-4.143 5.705-4.436 10.508C7.734-3.308 4.22 0 0 0m35.937-78.166c-.827 0-1.658.085-2.467.255a12.09 12.09 0 0 0-8.551 6.921c-.222.505-5.401 12.318-8.083 29.882-.552.092-1.093.194-1.63.307C9.19-39.539 3.973-37.103-.297-33.569-5.203-29.5-11.226-21.897-12.039-8.78A11.972 11.972 0 0 0-9.045-.064 11.95 11.95 0 0 0-.764 3.984c.255.017.513.024.768.024 6.334 0 11.607-4.962 12.003-11.296.226-3.652 1.213-6.165 3.015-7.685.103-.088.212-.173.326-.258.321 7.787 1.35 15.411 3.068 22.71a11.998 11.998 0 0 0 11.721 9.289 12.2 12.2 0 0 0 2.481-.258l.226-.049c6.525-1.534 10.548-8.031 9.031-14.499-7.773-33.032 4.973-62.942 5.101-63.239 2.665-6.065-.099-13.181-6.161-15.86a12.126 12.126 0 0 0-4.878-1.029z" style="fill:#000;fill-opacity:1;fill-rule:nonzero;stroke:none" transform="translate(136.41 389.375)"/><path d="M0 0c-55.134 6.642-106.404-30.115-113.017-85.033-6.274-52.094 37.025-81.517 92.159-88.155 55.134-6.642 104.181 11.661 110.455 63.755C96.214-54.515 55.134-6.642 0 0" style="fill:#d3edfb;fill-opacity:1;fill-rule:nonzero;stroke:none" transform="translate(221.508 332.676)"/><path d="M0 0c-1 0-1.866.749-1.99 1.767A2.01 2.01 0 0 0-.237 4.001c40.935 4.935 65.816 27.058 70.061 62.292 3.107 25.785-4.422 51.104-21.194 71.297-16.592 19.975-40.263 32.724-66.65 35.902-26.386 3.178-52.408-3.588-73.266-19.052-21.088-15.634-34.41-38.443-37.517-64.228-4.245-35.237 14.672-62.635 53.267-77.144a2.011 2.011 0 0 0 1.174-2.588 2.012 2.012 0 0 0-2.588-1.173c-40.496 15.227-60.329 44.13-55.844 81.385 3.238 26.892 17.129 50.677 39.111 66.975 21.689 16.08 48.726 23.117 76.14 19.812 27.412-3.301 52.01-16.556 69.259-37.322 17.486-21.049 25.333-47.453 22.091-74.341C69.322 28.56 43.197 5.192.244.014A1.996 1.996 0 0 0 0 0" style="fill:#000;fill-opacity:1;fill-rule:nonzero;stroke:none" transform="translate(239.29 157.19)"/><path d="m0 0 3.457 6.292C-6.73 12.59-10.972 16.631-17.624 26.577c-3.849 5.765-9.826 11.827-18.292 12.845-16.273 1.962-25.587-13.509-18.228-26.011-4.62-3.394-7.752-8.668-8.296-15.012-1.188-13.948 11.594-20.031 20.13-20.279 11.806-.342 17.645 6.243 18.532 13.595C-22.809-.212 0 0 0 0Z" style="fill:#d3edfb;fill-opacity:1;fill-rule:nonzero;stroke:none" transform="translate(257.855 313.306)"/><path d="M0 0a2 2 0 0 0-1.043.293c-10.25 6.246-14.916 10.735-21.706 20.883-4.79 7.172-10.466 11.198-16.86 11.969-6.78.813-12.807-1.722-16.122-6.783-3.146-4.808-3.199-11.022-.138-16.217a2.008 2.008 0 1 0-3.464-2.036c-3.839 6.521-3.747 14.361.24 20.451 4.168 6.37 11.633 9.572 19.961 8.572 7.507-.905 14.326-5.652 19.72-13.725C-12.937 13.722-8.731 9.674 1.043 3.722A2.01 2.01 0 0 0 1.714.961 2.004 2.004 0 0 0 0 0" style="fill:#000;fill-opacity:1;fill-rule:nonzero;stroke:none" transform="translate(261.308 317.59)"/><path d="M0 0c-.308 0-.619.004-.937.014-4.948.145-12.477 2.276-17.419 7.815-3.524 3.952-5.132 9.014-4.651 14.641.558 6.557 3.669 12.308 8.752 16.196 5.312 4.061 12.074 5.599 19.044 4.337a2.006 2.006 0 1 0-.721-3.948c-5.846 1.06-11.487-.209-15.888-3.574-4.174-3.192-6.726-7.932-7.189-13.347-.389-4.563.837-8.476 3.647-11.625 4.09-4.588 10.389-6.356 14.538-6.476 11.085-.336 15.769 5.899 16.483 11.827.392 3.277-.813 6.504-3.228 8.628-2.368 2.086-5.563 2.817-8.769 2.008C.94 25.81.173 23.52-.032 22.565c-.392-1.834.135-3.407.831-3.951a2.008 2.008 0 1 0-2.485-3.157c-2.032 1.601-2.944 4.793-2.273 7.946.75 3.513 3.231 6.126 6.638 6.985 4.507 1.138 9.028.084 12.403-2.888 3.408-2.998 5.112-7.529 4.56-12.124C18.783 8.207 13.11 0 0 0Z" style="fill:#000;fill-opacity:1;fill-rule:nonzero;stroke:none" transform="translate(216.422 289.408)"/><path d="M0 0c-1.159-9.614-9.897-16.475-19.515-15.316-9.621 1.156-16.478 9.894-15.319 19.515 1.159 9.618 9.893 16.475 19.515 15.316C-5.701 18.355 1.159 9.621 0 0Z" style="fill:#f6bec8;fill-opacity:1;fill-rule:nonzero;stroke:none" transform="translate(157.873 224.777)"/><path d="M0 0c-1.159-9.618-9.897-16.479-19.515-15.319-9.621 1.159-16.478 9.897-15.319 19.515 1.159 9.621 9.893 16.478 19.515 15.319C-5.701 18.356 1.159 9.621 0 0" style="fill:#f6bec8;fill-opacity:1;fill-rule:nonzero;stroke:none" transform="translate(292.54 208.56)"/><path d="M0 0a6.615 6.615 0 0 0-13.135 1.58 6.616 6.616 0 0 0 7.359 5.776A6.612 6.612 0 0 0 0 0" style="fill:#000;fill-opacity:1;fill-rule:nonzero;stroke:none" transform="translate(180.463 251.386)"/><path d="M0 0a6.618 6.618 0 0 0-7.359-5.776 6.614 6.614 0 0 0 1.58 13.135A6.615 6.615 0 0 0 0 0Z" style="fill:#000;fill-opacity:1;fill-rule:nonzero;stroke:none" transform="translate(255.215 242.386)"/><path d="M0 0a2.005 2.005 0 0 0-1.997 2.248c.484 4.026-1.085 6.854-3.998 7.204-2.909.35-5.114-2.026-5.599-6.048a2.008 2.008 0 0 0-3.987.481c.258 2.131-.06 3.951-.912 5.266-.721 1.11-1.788 1.782-3.086 1.937-1.297.156-2.495-.24-3.46-1.149-1.142-1.074-1.88-2.767-2.138-4.899a2.015 2.015 0 0 0-2.234-1.753 2.007 2.007 0 0 0-1.754 2.234c.372 3.079 1.538 5.617 3.372 7.342 1.835 1.725 4.21 2.509 6.692 2.209 2.481-.297 4.602-1.623 5.973-3.736a8.84 8.84 0 0 0 .386-.654c1.83 2.053 4.368 3.096 7.224 2.753 5.172-.622 8.257-5.422 7.508-11.671A2.007 2.007 0 0 0 0 0Z" style="fill:#000;fill-opacity:1;fill-rule:nonzero;stroke:none" transform="translate(224.05 237.314)"/><path d="M0 0c-.124-30.525-9.985-53.331-34.364-50.394-24.375 2.938-28.542 27.429-21.417 57.113l28.546 2.082z" style="fill:#bf6180;fill-opacity:1;fill-rule:nonzero;stroke:none" transform="translate(236.64 223.374)"/><path d="M0 0c-4.468-19.494-3.51-34.555 2.789-43.614 3.796-5.454 9.6-8.688 17.249-9.611a32.59 32.59 0 0 1 3.87-.24c23.757 0 27.96 28.892 28.232 47.184L26.68 1.944Zm23.912-57.481c-1.407 0-2.87.092-4.351.269-8.84 1.064-15.592 4.867-20.066 11.304-7.126 10.243-8.183 26.937-3.061 48.269A2.004 2.004 0 0 0-1.76 3.895l28.546 2.082c.258.018.516-.014.763-.092l27.235-8.801a2.008 2.008 0 0 0 1.389-1.919c-.138-33.456-11.898-52.646-32.261-52.646z" style="fill:#000;fill-opacity:1;fill-rule:nonzero;stroke:none" transform="translate(182.475 228.198)"/><path d="M0 0c2.156-13.34 9.498-22.548 23.852-24.276 14.354-1.729 23.672 5.475 28.931 17.917 0 0-6.553 9.137-25.4 11.407C8.54 7.32 0 0 0 0Z" style="fill:#f6bec8;fill-opacity:1;fill-rule:nonzero;stroke:none" transform="translate(178.424 197.256)"/><path d="M0 0c2.428-12.728 9.788-19.921 21.894-21.378 12.085-1.456 20.964 3.789 26.34 15.567-2.092 2.17-8.971 8.045-23.29 9.77a57.475 57.475 0 0 1-6.804.424C8.041 4.383 2.124 1.347 0 0m25.761-25.633c-.004 0 0 0 0 0a37.03 37.03 0 0 0-4.348.268C7.137-23.647-1.714-14.672-4.182.583a2.017 2.017 0 0 0 .676 1.845c.282.244 7.126 5.967 21.646 5.967 2.347 0 4.796-.152 7.281-.453C44.919 5.595 51.924-3.885 52.214-4.288a2.017 2.017 0 0 0 .219-1.951c-5.365-12.686-14.591-19.394-26.672-19.394z" style="fill:#000;fill-opacity:1;fill-rule:nonzero;stroke:none" transform="translate(180.623 196.35)"/><path d="M0 0c-.859-7.136-5.532-12.446-8.533-12.085-3.001.361-6.281 6.631-5.418 13.764C-13.092 8.819.862 7.14 0 0" style="fill:#fff;fill-opacity:1;fill-rule:nonzero;stroke:none" transform="translate(189.265 227.29)"/><path d="M0 0c-.679 0-4.09-.134-4.411-2.821-.35-2.898.056-5.956 1.11-8.384.947-2.184 2.071-3.089 2.555-3.149l.057-.004c1.527 0 5.468 3.906 6.245 10.336.103.841-.123 1.555-.682 2.188C3.885-.718 1.972 0 0 0m-.689-18.37c-.181 0-.361.011-.534.032-2.252.272-4.351 2.287-5.758 5.535-1.35 3.111-1.852 6.826-1.414 10.463.456 3.8 3.832 6.355 8.399 6.355 3.117 0 6.136-1.219 7.875-3.181C9.208-.664 9.784-2.51 9.544-4.5 8.649-11.887 3.87-18.37-.689-18.37" style="fill:#000;fill-opacity:1;fill-rule:nonzero;stroke:none" transform="translate(181.718 231.55)"/><path d="M0 0c-.862-7.133-5.535-12.446-8.533-12.085-3.001.361-6.281 6.631-5.422 13.764C-13.096 8.819.855 7.14 0 0Z" style="fill:#fff;fill-opacity:1;fill-rule:nonzero;stroke:none" transform="translate(241.762 220.966)"/><path d="M0 0c-.679 0-4.086-.138-4.411-2.821-.35-2.898.056-5.952 1.11-8.38.947-2.185 2.071-3.09 2.559-3.15l.053-.003c1.527 0 5.471 3.906 6.246 10.335.099.841-.124 1.555-.686 2.188C3.888-.721 1.976 0 0 0m-.686-18.373c-.18 0-.357.01-.533.032-2.252.272-4.352 2.287-5.762 5.535-1.35 3.11-1.852 6.825-1.414 10.463.46 3.799 3.832 6.355 8.395 6.355 3.118 0 6.136-1.22 7.879-3.181C9.208-.668 9.788-2.513 9.547-4.503c-.891-7.388-5.673-13.87-10.233-13.87z" style="fill:#000;fill-opacity:1;fill-rule:nonzero;stroke:none" transform="translate(234.208 225.23)"/><path d="M0 0s-1.28-10.629 15.952-12.707c17.334-2.089 25.524 6.589 25.524 6.589s5.896-10.371 23.23-12.46c17.231-2.075 18.514 8.557 18.514 8.557S66.476-4.164 42.063-1.227C17.656 1.718 0 0 0 0" style="fill:#d3edfb;fill-opacity:1;fill-rule:nonzero;stroke:none" transform="translate(167.926 238.29)"/><path d="M0 0a37.36 37.36 0 0 0-4.432.279c-13.655 1.647-20.625 8.187-23.347 11.513-3.432-2.584-11.756-7.285-25.411-5.642-7.776.937-13.127 3.648-15.899 8.056-2.149 3.421-1.848 6.539-1.806 6.882a2.013 2.013 0 0 0 2.234 1.753 2.002 2.002 0 0 0 1.753-2.216c-.039-.4-.632-8.706 14.196-10.491 16.153-1.948 23.749 5.892 23.823 5.973a2.007 2.007 0 0 0 3.206-.385c.219-.378 5.716-9.529 21.724-11.459 14.867-1.789 16.235 6.472 16.284 6.825a2.022 2.022 0 0 0 2.252 1.718 1.998 1.998 0 0 0 1.732-2.22C16.302 10.477 14.853.004 0 0Z" style="fill:#000;fill-opacity:1;fill-rule:nonzero;stroke:none" transform="translate(236.827 217.439)"/><path d="M0 0c-8.218-19.812 1.817-43.911 23.792-49.878l-.265.559c4.068-4.153 9.766-7.193 17.203-8.31 13.891-2.072 28.394 6.175 34.979 21.331 4.153 9.562 5.405 20.226.898 28.882-5.026 9.65-16.058 17.568-28.656 17.737a34.589 34.589 0 0 1-2.598-.07l.007.003c-7.963-.516-17.429 3.248-23.993 10.431-6.15 6.733-9.936 11.41-14.683 11.106-4.372-.279-7.882-3.963-9.126-10.703-.962-5.203-.379-13.446 2.47-21.134Z" style="fill:#fff;fill-opacity:1;fill-rule:nonzero;stroke:none" transform="translate(80.768 176.917)"/><path d="M0 0c-1.509 0-3.022.11-4.535.336-13.361 2-22.753 10.144-25.771 22.346-1.867 7.557-.587 16.079 3.421 22.799C-22.021 53.639-11.778 60.213-4.284 57c3.291-1.41 5.412-4.231 5.966-7.946.782-5.217-1.724-11.131-6.387-15.072-4.174-3.527-7.592-3.87-9.72-3.538-2.057.322-3.863 1.442-4.835 2.997-1.05 1.683-1.319 4.048-.721 6.331.653 2.492 2.216 4.524 4.404 5.723a2.007 2.007 0 1 0 1.926-3.524c-1.633-.891-2.234-2.397-2.449-3.217-.357-1.361-.135-2.58.243-3.185.266-.427.965-.986 2.051-1.155 1.848-.294 4.156.65 6.51 2.636 3.567 3.015 5.578 7.6 5.006 11.414-.244 1.619-1.061 3.771-3.578 4.849-4.87 2.082-13.24-2.626-17.57-9.886-3.478-5.832-4.592-13.227-2.973-19.78 2.605-10.54 10.795-17.592 22.466-19.338C9.377 2.326 22.88 10.608 28.896 24.453c4.429 10.19 4.768 19.836.958 27.157-4.252 8.168-14.22 16.485-26.903 16.655-16.086.187-25.654-11.403-25.75-11.519a2.007 2.007 0 0 0-3.135 2.509c.428.537 10.618 13.025 28.437 13.025.166 0 .332 0 .501-.003 12.414-.166 24.637-7.727 30.409-18.815 4.383-8.416 4.083-19.285-.834-30.61C26.514 8.897 13.548 0 0 0Z" style="fill:#000;fill-opacity:1;fill-rule:nonzero;stroke:none" transform="translate(125.74 116.966)"/><path d="M0 0c-.516 0-1.036.198-1.428.597-9.851 9.965-12.046 26.517-10.459 35.085 1.361 7.374 5.465 11.99 10.972 12.344 5.305.339 9.296-4.044 14.803-10.113l1.495-1.64c5.889-6.444 14.676-10.293 22.381-9.781a2.007 2.007 0 1 0 .262-4.008c-8.879-.576-18.928 3.772-25.605 11.081l-1.502 1.651c-4.931 5.433-8.194 9.027-11.573 8.805-3.605-.23-6.26-3.535-7.281-9.063-1.386-7.494.632-22.696 9.367-31.533A2.005 2.005 0 0 0 1.414.587 1.998 1.998 0 0 0 0 0Z" style="fill:#000;fill-opacity:1;fill-rule:nonzero;stroke:none" transform="translate(88.237 162.687)"/><path d="M0 0c-.173 0-.35.021-.527.071-10.639 2.891-19.182 9.95-24.057 19.879-5.036 10.264-5.425 22.187-1.064 32.706a2.007 2.007 0 1 0 3.708-1.538c-3.92-9.451-3.57-20.168.958-29.397C-16.624 12.841-8.989 6.532.523 3.948a2.002 2.002 0 0 0 1.41-2.463A2 2 0 0 0 0 0Z" style="fill:#000;fill-opacity:1;fill-rule:nonzero;stroke:none" transform="translate(104.56 125.032)"/><path d="M0 0c8.572 9.936-6.525 20.201-12.795 38.729-5.235 15.475-4.885 25.772-.661 37.107 3.722 9.996-6.388 15.38-10.597 10.848 0 0-2.135 24.845-22.81 19.515-21.957-5.659-25.195-47.721-6.8-75.578C-39.224 8.741-10.501-12.177 0 0" style="fill:#d3edfb;fill-opacity:1;fill-rule:nonzero;stroke:none" transform="translate(133.622 168.498)"/><path d="M0 0c-1.552 0-3.234-.23-4.998-.686C-12.87-2.715-17.03-9.65-19.13-15.107c-6.373-16.553-2.796-40.988 8.508-58.107 11.919-18.055 31.865-33.31 43.554-33.31 2.973 0 5.235.947 6.914 2.895 4.217 4.888 1.538 9.766-3.976 18.68-3.181 5.143-6.79 10.972-9.201 18.094-5.125 15.146-5.305 25.931-.64 38.454 1.039 2.785.877 5.373-.452 7.288-1.043 1.503-2.775 2.475-4.404 2.475-.672 0-1.633-.17-2.386-.983a2.005 2.005 0 0 0-2.121-.53 2.013 2.013 0 0 0-1.35 1.725C15.245-17.68 13.524 0 0 0Zm32.932-110.54c-14.658 0-35.76 18.229-46.908 35.114-11.961 18.118-15.708 44.091-8.904 61.761 3.499 9.091 9.339 14.927 16.878 16.867 2.093.541 4.111.813 6.002.813 12.071 0 17.309-11.102 18.865-18.991.728.229 1.502.35 2.304.35 2.952 0 5.903-1.609 7.702-4.2 2.103-3.025 2.428-6.924.919-10.978-4.305-11.562-4.114-21.59.682-35.764 2.263-6.688 5.744-12.308 8.812-17.27 5.334-8.622 9.943-16.069 3.606-23.414-2.457-2.845-5.808-4.288-9.958-4.288z" style="fill:#000;fill-opacity:1;fill-rule:nonzero;stroke:none" transform="translate(92.256 273.438)"/><path d="M0 0s-2.619-2.343-2.966-6.677" style="fill:#d3edfb;fill-opacity:1;fill-rule:nonzero;stroke:none" transform="translate(109.565 255.178)"/><path d="M0 0c-.053 0-.11.004-.163.007A2.007 2.007 0 0 0-2.004 2.17c.406 5.073 3.499 7.893 3.63 8.013a2.008 2.008 0 0 0 2.69-2.979c-.106-.099-2.043-1.959-2.319-5.352A2.006 2.006 0 0 0 0 0" style="fill:#000;fill-opacity:1;fill-rule:nonzero;stroke:none" transform="translate(106.6 246.494)"/><path d="M0 0a1.34 1.34 0 0 0-1.262.894C-6.168 14.761.226 31.413.502 32.116a1.337 1.337 0 1 0 2.492-.972c-.064-.163-6.302-16.44-1.732-29.352A1.336 1.336 0 0 0 .445.085 1.172 1.172 0 0 0 0 0" style="fill:#929a9f;fill-opacity:1;fill-rule:nonzero;stroke:none" transform="translate(59.832 232.217)"/><path d="M0 0c-.357 0-.718.145-.979.428-10.343 11.123-8.632 28.044-8.554 28.761a1.334 1.334 0 0 0 1.474 1.184 1.338 1.338 0 0 0 1.188-1.474c-.018-.162-1.648-16.436 7.854-26.647A1.34 1.34 0 0 0 0 0" style="fill:#929a9f;fill-opacity:1;fill-rule:nonzero;stroke:none" transform="translate(58.076 221.398)"/><path d="M0 0c-1.11 0-2.008.898-2.008 2.008v39.917c0 1.11.898 2.007 2.008 2.007 1.11 0 2.008-.897 2.008-2.007V2.008A2.009 2.009 0 0 0 0 0" style="fill:#000;fill-opacity:1;fill-rule:nonzero;stroke:none" transform="translate(406.724 4.567)"/><path d="M0 0c0 2.842 5.836 5.146 13.036 5.146 7.2 0 13.036-2.304 13.036-5.146 0-3.906-5.84-3.973-13.036-3.973C5.832-3.973 0-3.906 0 0" style="fill:#f8b62d;fill-opacity:1;fill-rule:nonzero;stroke:none" transform="translate(393.692 5.992)"/><path d="M0 0c-7.235 0-11.028-2.329-11.028-3.139 0-1.965 6.115-1.965 11.028-1.965s11.028 0 11.028 1.965C11.032-2.329 7.239 0 0 0m0-9.116c-7.395 0-15.044 0-15.044 5.981 0 4.697 7.568 7.154 15.044 7.154 7.476 0 15.047-2.457 15.047-7.154 0-5.981-7.649-5.981-15.047-5.981" style="fill:#000;fill-opacity:1;fill-rule:nonzero;stroke:none" transform="translate(406.724 9.127)"/><path d="M0 0c-1.11 0-2.008.898-2.008 2.008v39.917c0 1.11.898 2.007 2.008 2.007 1.11 0 2.008-.897 2.008-2.007V2.008A2.011 2.011 0 0 0 0 0" style="fill:#000;fill-opacity:1;fill-rule:nonzero;stroke:none" transform="translate(455.825 4.567)"/><path d="M0 0c0 2.842 5.839 5.146 13.039 5.146 7.201 0 13.036-2.304 13.036-5.146 0-3.906-5.835-3.973-13.036-3.973C5.839-3.973 0-3.906 0 0" style="fill:#f8b62d;fill-opacity:1;fill-rule:nonzero;stroke:none" transform="translate(442.785 5.992)"/><path d="M0 0c-7.239 0-11.028-2.329-11.028-3.139 0-1.965 6.115-1.965 11.028-1.965s11.028 0 11.028 1.965C11.025-2.329 7.232 0 0 0m0-9.116c-7.398 0-15.047 0-15.047 5.981 0 4.697 7.568 7.154 15.047 7.154 7.476 0 15.044-2.457 15.044-7.154C15.04-9.116 7.395-9.116 0-9.116" style="fill:#000;fill-opacity:1;fill-rule:nonzero;stroke:none" transform="translate(455.825 9.127)"/><path d="M0 0c-27.252-5.143-48.559-28.277-50.224-57.212-1.958-34.096 24.092-63.32 58.188-65.278 34.095-1.959 63.316 24.092 65.274 58.187C74.9-35.364 56.382-9.947 29.896-1.718c1.301 22.647 7.543 44.512 9.989 55.148 6.985 29.009-1.863 33.721-6.984 34.954-5.118 1.234-15.143 1.064-22.127-27.945C7.646 48.432 1.414 24.598 0 0Z" style="fill:#fff;fill-opacity:1;fill-rule:nonzero;stroke:none" transform="translate(419.767 146.364)"/><path d="M0 0c-8.918 0-14.298-14.563-17.239-26.779l-.063-.251c-3.238-12.435-9.261-35.58-10.654-59.834a2.008 2.008 0 0 0-1.633-1.86c-27.029-5.1-47.011-27.863-48.591-55.353-1.891-32.932 23.364-61.266 56.297-63.157a60.587 60.587 0 0 1 3.485-.099c31.642 0 57.852 24.771 59.669 56.399 1.58 27.493-15.666 52.391-41.936 60.553a2.005 2.005 0 0 0-1.406 2.032c1.092 19.048 5.574 37.245 8.539 49.287a452.351 452.351 0 0 1 1.496 6.193C12.682-13.28 10.83-2.333 2.464-.318 1.584-.103.774 0 0 0m-18.394-211.348c-.004 0 0 0 0 0-1.234 0-2.485.035-3.719.106-35.145 2.018-62.097 32.254-60.075 67.395 1.654 28.815 22.254 52.759 50.319 58.76 1.577 24.079 7.48 46.761 10.682 59.068l.057.212C-16.369-6.034-9.257 4.012.004 4.012c1.095 0 2.209-.142 3.407-.428 10.954-2.64 13.803-15.213 8.465-37.375a439.255 439.255 0 0 0-1.505-6.236C7.522-51.596 3.255-68.919 2.036-87.041c27.185-9.18 44.901-35.319 43.247-64.13-1.941-33.738-29.914-60.177-63.677-60.177z" style="fill:#000;fill-opacity:1;fill-rule:nonzero;stroke:none" transform="translate(449.727 233.112)"/><path d="M0 0a2.751 2.751 0 0 0-3.323-2.032A2.753 2.753 0 0 0-5.355 1.29 2.753 2.753 0 1 0 0 0" style="fill:#000;fill-opacity:1;fill-rule:nonzero;stroke:none" transform="translate(454.835 210.281)"/><path d="M0 0c-.106 0-.212.011-.315.039l-3.368.813a1.338 1.338 0 0 0-.986 1.615 1.345 1.345 0 0 0 1.615.986L.315 2.64A1.34 1.34 0 0 0 0 0Z" style="fill:#000;fill-opacity:1;fill-rule:nonzero;stroke:none" transform="translate(456.38 219.715)"/><path d="M0 0a2.757 2.757 0 0 0-3.323-2.032 2.749 2.749 0 0 0-2.032 3.319 2.748 2.748 0 0 0 3.323 2.032A2.747 2.747 0 0 0 0 0" style="fill:#000;fill-opacity:1;fill-rule:nonzero;stroke:none" transform="translate(444.952 212.66)"/><path d="M0 0c-.106 0-.209.011-.315.039l-3.368.809a1.346 1.346 0 0 0-.99 1.616 1.343 1.343 0 0 0 1.615.989l3.369-.809a1.343 1.343 0 0 0 .99-1.615A1.335 1.335 0 0 0 0 0Z" style="fill:#000;fill-opacity:1;fill-rule:nonzero;stroke:none" transform="translate(446.691 222.052)"/><path d="M0 0c-.771-3.199-6.953-9.363-19.943-6.235-12.993 3.128-15.69 11.431-14.919 14.63.438 1.813 2.272 3.612 4.658 3.718 3.404.145 6.101-3.799 13.344-5.546 7.242-1.742 11.505.527 14.464-1.17C-.357 4.227.431 1.796 0 0Z" style="fill:#f8b62d;fill-opacity:1;fill-rule:nonzero;stroke:none" transform="translate(461.964 196.775)"/><path d="M0 0c-1.513-.064-2.651-1.184-2.891-2.184-.23-.955.095-3.249 1.937-5.649 1.629-2.121 4.948-4.984 11.498-6.56 2.22-.534 4.337-.806 6.295-.806 7.395 0 10.802 3.817 11.226 5.56.237.993-.244 2.495-1.445 3.185-.499.286-1.153.406-2.195.406-.633 0-1.315-.042-2.054-.085a51.785 51.785 0 0 0-3.171-.116c-2.265 0-4.397.247-6.514.756-4.061.979-6.748 2.57-8.907 3.849C2.174-.689 1.011 0 0 0Zm16.843-19.211c-2.277 0-4.708.308-7.236.916-7.691 1.852-11.717 5.379-13.743 8.016-2.714 3.535-3.152 6.985-2.658 9.038.601 2.496 3.033 5.101 6.522 5.253L0 4.019c2.11 0 3.835-1.022 5.829-2.206 2.029-1.201 4.326-2.562 7.801-3.4a23.129 23.129 0 0 1 5.574-.647c1.053 0 2.008.057 2.93.11a39.64 39.64 0 0 0 2.291.092c1.191 0 2.746-.106 4.195-.941 2.987-1.714 3.945-5.125 3.351-7.606-.806-3.337-5.624-8.632-15.128-8.632z" style="fill:#000;fill-opacity:1;fill-rule:nonzero;stroke:none" transform="translate(431.944 206.884)"/><path d="M0 0s1.831-4.705 10.848-6.878C19.865-9.052 23.64-5.691 23.64-5.691" style="fill:#f8b62d;fill-opacity:1;fill-rule:nonzero;stroke:none" transform="translate(432.68 203.675)"/><path d="M0 0c-1.7 0-3.69.212-5.984.767-9.586 2.308-11.696 7.476-11.781 7.695-.269.689.07 1.463.76 1.732a1.342 1.342 0 0 0 1.728-.746c.046-.106 1.888-4.142 9.922-6.076 8.101-1.951 11.565.87 11.601.898a1.35 1.35 0 0 0 1.884-.142 1.33 1.33 0 0 0-.117-1.869C7.875 2.131 5.394 0 0 0Z" style="fill:#000;fill-opacity:1;fill-rule:nonzero;stroke:none" transform="translate(449.2 194.732)"/><path d="M0 0s3.549-4.404 5.666-10.116c1.721-4.655 3.089-9.964 8.158-10.275 3.086-.188 5.005 3.898 4.669 8.437C18.027-5.712 14.17.802 8.451 4.337" style="fill:#fff;fill-opacity:1;fill-rule:nonzero;stroke:none" transform="translate(479.457 106.09)"/><path d="M0 0c-.11 0-.219.004-.332.011-5.9.364-7.858 5.839-9.434 10.24-.163.452-.322.901-.488 1.346-1.979 5.341-5.313 9.512-5.344 9.554a2.01 2.01 0 0 0 3.128 2.521c.152-.191 3.782-4.73 5.984-10.682.17-.46.336-.923.502-1.386C-4.341 7.013-3.125 4.21-.085 4.022c.241-.014.626.018 1.089.488.873.884 1.661 3.019 1.453 5.797-.428 5.712-4.083 11.633-9.095 14.729a2.008 2.008 0 1 0 2.11 3.418c6.15-3.8 10.463-10.805 10.989-17.85.273-3.658-.699-6.992-2.601-8.914C2.768.576 1.442 0 0 0Z" style="fill:#000;fill-opacity:1;fill-rule:nonzero;stroke:none" transform="translate(493.494 83.683)"/><path d="M0 0s-7.536 6.984-5.981 21.13c.679 6.154-2.499 10.944-6.592 11.354-8.299.827-13.541-8.685-11.516-20.162 1.722-9.756 8.777-16.27 15.949-18.235" style="fill:#fff;fill-opacity:1;fill-rule:nonzero;stroke:none" transform="translate(392.462 128.196)"/><path d="M0 0c-.177 0-.353.025-.534.071-8.872 2.432-15.697 10.211-17.397 19.822-1.333 7.557.212 14.591 4.139 18.826 2.538 2.736 5.934 4.043 9.554 3.683 2.181-.219 4.22-1.379 5.747-3.259 2.114-2.609 3.075-6.366 2.641-10.311C2.722 15.839 9.43 9.455 9.501 9.395a2.01 2.01 0 0 0 .11-2.838 2.014 2.014 0 0 0-2.839-.11c-.335.315-8.26 7.844-6.613 22.824.318 2.887-.329 5.563-1.771 7.345-.859 1.06-1.905 1.679-3.025 1.792-2.379.24-4.525-.598-6.211-2.418-3.029-3.266-4.227-9.165-3.128-15.397C-12.241 10.763-5.079 5.482.527 3.945a2.01 2.01 0 0 0 1.406-2.467A2.004 2.004 0 0 0 0 0Z" style="fill:#000;fill-opacity:1;fill-rule:nonzero;stroke:none" transform="translate(384.322 120.274)"/><path d="M0 0c-.52 0-1.014.308-1.23.816-3.655 8.6-.173 18.236-.025 18.642a1.337 1.337 0 1 0 2.51-.926c-.032-.088-3.259-9.063-.025-16.669A1.34 1.34 0 0 0 0 0Z" style="fill:#929a9f;fill-opacity:1;fill-rule:nonzero;stroke:none" transform="translate(362.12 136.046)"/><path d="M0 0c-.318 0-.64.113-.894.343-7.66 6.878-5.73 17.514-5.642 17.963a1.331 1.331 0 0 0 1.566 1.06 1.336 1.336 0 0 0 1.064-1.562c-.018-.095-1.718-9.618 4.8-15.471A1.337 1.337 0 0 0 0 0Z" style="fill:#929a9f;fill-opacity:1;fill-rule:nonzero;stroke:none" transform="translate(359.544 129.595)"/></g></svg>